<?xml version="1.0" encoding="UTF-8" standalone="no"?>
<svg
   version="1.1"
   width="326.20016"
   height="336.34006"
   style="clip-rule:evenodd;fill-rule:evenodd;image-rendering:optimizeQuality;shape-rendering:geometricPrecision;text-rendering:geometricPrecision"
   id="svg7"
   xmlns="http://www.w3.org/2000/svg"
   xmlns:svg="http://www.w3.org/2000/svg">
  <defs
     id="defs7" />
  <ellipse
     style="clip-rule:evenodd;fill:#000000;fill-opacity:1;fill-rule:evenodd;stroke-width:0;stroke-linecap:square;stroke-miterlimit:5.3;paint-order:stroke fill markers;image-rendering:optimizeQuality;shape-rendering:geometricPrecision;text-rendering:geometricPrecision"
     id="path33"
     cx="163.10007"
     cy="168.17004"
     rx="163.10007"
     ry="168.17004" />
  <g
     id="g34"
     style="stroke-width:0;stroke-dasharray:none;paint-order:stroke markers fill"
     transform="matrix(1.0538498,-0.00386649,0.02754051,0.86767821,-64.921668,21.888827)">
    <g
       id="g2"
       transform="matrix(0.59203944,0,0,1.2284422,87.155847,16.362192)"
       style="fill:#ffffff;stroke-width:0;stroke-dasharray:none;paint-order:stroke markers fill">
      <path
         style="opacity:1;fill:#ffffff;stroke-width:0;stroke-dasharray:none;paint-order:stroke markers fill"
         fill="#171717"
         d="m 191.35174,17.476058 c 62.51024,-2.839889 120.22361,11.665939 173.14011,43.517482 18.60283,11.525215 36.46266,24.027062 53.57948,37.505539 1.20259,-5.244708 3.9892,-9.077751 8.35878,-11.499229 0.48032,0.41405 0.83188,0.914088 1.05259,1.500113 -7.84335,8.125962 -8.17057,16.459277 -0.9827,25.000037 -0.32085,0.80797 -0.84341,1.47492 -1.56768,1.99985 -9.89557,-6.19601 -18.63035,-4.86288 -26.20542,3.99742 -1.29187,-0.77514 -1.6437,-1.77518 -1.05655,-3.00013 2.50594,-2.89976 5.47058,-5.23248 8.89497,-6.99915 C 362.39182,71.477087 310.94302,46.638528 252.21894,34.982216 191.14466,26.828988 134.19694,37.823375 81.377872,67.965376 55.818211,82.501109 31.743039,98.9988 9.152355,117.45845 8.0147125,116.59333 7.837267,115.59331 8.6201234,114.45838 140.50931,3.4654078 274.55527,1.3120887 410.75591,107.9984 c 2.8618,0.81829 5.65808,0.65257 8.38779,-0.49917 -0.6413,-2.20907 -1.34645,-4.37615 -2.11442,-6.50024 C 386.73304,76.73414 353.4741,56.730719 317.25036,40.988726 245.86806,12.990264 174.91159,13.6499 104.38199,42.967533 66.662523,60.206168 32.289733,82.036162 1.2638281,108.45761 -0.43444814,107.42144 -0.61233408,106.25442 0.7302778,104.95754 41.590533,69.752722 88.360875,43.757241 141.04214,26.971098 c 16.62905,-4.471868 33.39892,-7.636914 50.3096,-9.49504 z"
         id="path2" />
    </g>
    <g
       id="g4"
       transform="matrix(1.1661245,-1.3481046e-4,-6.105081e-4,0.92384588,-51.227415,-1.2406497)"
       style="fill:#ffffff;stroke-width:0;stroke-dasharray:none;paint-order:stroke markers fill">
      <path
         style="opacity:1;fill:#ffffff;stroke:#000000;stroke-width:0;stroke-dasharray:none;stroke-opacity:1;paint-order:stroke markers fill"
         fill="#040404"
         d="m 211.55712,92.534676 c 1.96037,50.492004 2.69787,101.158004 3,152.000004 3.304,2.473 6.7405,4.89248 9.1025,8.41948 -2.79195,-159.201173 -0.77624,-160.226812 -0.77624,-160.226812 0.47023,-0.459745 3.20086,54.471202 2.89762,160.467272 2.026,-3.526 4.859,-6.193 8.5,-8 0.32415,-49.52996 -1.07668,-103.31215 0.48349,-152.209218 0.057,-1.78691 2.45784,0.995282 2.51651,-0.790783 V 243.19462 c 1.291,0.237 2.291,-0.096 3,-1 3.659,-1.183 7.325,-1.183 11,0 -8.635,1.066 -16.135,4.733 -22.5,11 -1.846,3.069 -2.846,6.402 -3,10 -5.49507,7.32492 1.7767,-12.00387 -17.5,-17.5 -3.586,-1.108 -7.253,-1.608 -11,-1.5 v -3 c 12.45374,0.17512 11.82506,2.39927 14,2 L 209.34073,91.979407 Z"
         id="path4" />
    </g>
    <g
       id="g7"
       transform="matrix(0.61419233,4.5120866e-5,5.6638249e-4,1.2929588,72.460914,-116.28661)"
       style="fill:#ffffff;stroke-width:0;stroke-dasharray:none;paint-order:stroke markers fill">
      <path
         style="opacity:1;fill:#ffffff;stroke-width:0;stroke-dasharray:none;paint-order:stroke markers fill"
         fill="#161616"
         d="m 387.09254,221.73915 c 3.813,2.266 19.22046,1.19285 23.40746,3.26085 4.988,0.96 9.655,0.127 14,-2.5 0.667,0.333 1.333,0.667 2,1 -6.84,8.5 -6.506,16.833 1,25 -0.333,1 2.94332,3.77949 1.94332,4.11249 -3.36,-3.385 -9.63732,-9.49749 -10.94332,-14.11249 -42.441,37.558 -91.441,63.058 -147,76.5 -48.003,9.424 -94.67,5.091 -140,-13 -41.7743,-17.526 -79.1076,-41.526 -112,-72 0.3333,-0.5 0.6667,-1 1,-1.5 23.9112,20.624 49.5778,38.791 77,54.5 90.112,46.981 178.778,44.315 266,-8 18.838,-11.838 36.838,-24.838 54,-39 0.667,-2.333 1.333,-4.667 2,-7 -2.667,-0.667 -5.333,-0.667 -8,0 -40.628,35.652 -87.295,60.319 -140,74 -50.043,9.958 -98.377,4.625 -145,-16 C 90.4225,270.219 57.5891,248.719 28,222.5 c -0.7494,-1.135 -0.5827,-2.135 0.5,-3 28.4113,25.052 59.7446,45.886 94,62.5 68.146,30.239 136.146,29.906 204,-1 29.438,-14.369 56.438,-32.202 81,-53.5 -4.043,-2.043 -18.45046,-1.80385 -20.40746,-5.76085 z"
         id="path7" />
    </g>
  </g>
</svg>
